Scott and Derek seek help from an unlikely ally.



Format                                   : MPEG-4
Format profile                           : Base Media
Codec ID                                 : isom
File size                                : 250 MiB
Duration                                 : 41mn 21s
Overall bit rate mode                    : Variable
Overall bit rate                         : 847 Kbps
Encoded date                             : UTC 2013-06-18 03:13:11
Tagged date                              : UTC 2013-06-18 03:13:11

Video
ID                                       : 1
Format                                   : AVC
Format/Info                              : Advanced Video Codec
Format profile                           : High@L3.1
Format settings, CABAC                   : Yes
Format settings, ReFrames                : 5 frames
Codec ID                                 : avc1
Codec ID/Info                            : Advanced Video Coding
Duration                                 : 41mn 20s
Source duration                          : 41mn 20s
Bit rate                                 : 711 Kbps
Maximum bit rate                         : 5 132 Kbps
Width                                    : 720 pixels
Height                                   : 406 pixels
Display aspect ratio                     : 16:9
Frame rate mode                          : Constant
Frame rate                               : 23.976 fps
Color space                              : YUV
Chroma subsampling                       : 4:2:0
Bit depth                                : 8 bits
Scan type                                : Progressive
Bits/(Pixel*Frame)                       : 0.101
Stream size                              : 210 MiB (84%)
Source stream size                       : 210 MiB (84%)
Writing library                          : x264 core 133 r2334 a3ac64b
Encoding settings                        : cabac=1 / ref=5 / deblock=1:0:0 / 
Encoded date                             : UTC 2013-06-18 02:09:44
Tagged date                              : UTC 2013-06-18 03:13:12
Matrix coefficients                      : BT.709

Audio
ID                                       : 2
Format                                   : AAC
Format/Info                              : Advanced Audio Codec
Format profile                           : LC
Codec ID                                 : 40
Duration                                 : 41mn 21s
Bit rate mode                            : Variable
Bit rate                                 : 132 Kbps
Maximum bit rate                         : 150 Kbps
Channel(s)                               : 2 channels
Channel positions                        : Front: L R
Sampling rate                            : 48.0 KHz
Compression mode                         : Lossy
Delay relative to video                  : 83ms
Stream size                              : 39.0 MiB (16%)
Encoded date                             : UTC 2013-06-18 03:13:12
Tagged date                              : UTC 2013-06-18 03:13:12

